<svg width="26" height="26" viewBox="0 0 26 26" fill="none" xmlns="http://www.w3.org/2000/svg">
<path d="M18.3308 16.7694C17.4667 17.6334 15.6797 19.4205 14.4133 20.6868C13.6322 21.4679 12.3679 21.4678 11.5868 20.6867C10.3427 19.4426 8.59006 17.69 7.66946 16.7694C4.72542 13.8253 4.72542 9.0521 7.66946 6.10806C10.6135 3.16401 15.3867 3.16401 18.3308 6.10806C21.2748 9.0521 21.2748 13.8253 18.3308 16.7694Z" stroke="#56585A" stroke-width="2" stroke-linecap="round" stroke-linejoin="round"/>
<path d="M15.8271 11.4387C15.8271 13 14.5614 14.2657 13.0001 14.2657C11.4388 14.2657 10.1731 13 10.1731 11.4387C10.1731 9.8774 11.4388 8.6117 13.0001 8.6117C14.5614 8.6117 15.8271 9.8774 15.8271 11.4387Z" stroke="#56585A" stroke-width="2" stroke-linecap="round" stroke-linejoin="round"/>
</svg>
