<svg width="61" height="38" viewBox="0 0 61 38" fill="none" xmlns="http://www.w3.org/2000/svg">
<path d="M46.7517 35.2421H12.8124C10.3607 35.2421 8.00947 34.2137 6.27586 32.3833C4.54226 30.5528 3.56833 28.0702 3.56833 25.4815C3.56833 22.8929 4.54226 20.4103 6.27586 18.5798C8.00947 16.7493 10.3607 15.721 12.8124 15.721H13.249H14.3689L14.6536 14.5786C15.3753 11.6072 16.9161 8.92888 19.0808 6.88306C21.2454 4.83723 23.9366 3.51604 26.8132 3.08674C29.6897 2.65744 32.6222 3.13938 35.2391 4.47161C37.856 5.80384 40.0394 7.92636 41.5127 10.5701L42.0252 11.492H42.1202C42.999 13.4955 43.4524 15.6776 43.4489 17.8855C43.4489 18.1831 43.5609 18.4687 43.7602 18.6791C43.9596 18.8896 44.23 19.0078 44.5119 19.0078C44.7938 19.0078 45.0641 18.8896 45.2635 18.6791C45.4628 18.4687 45.5749 18.1831 45.5749 17.8855C45.5766 15.5227 45.1246 13.1841 44.2461 11.011C44.7329 10.9818 45.2209 10.9818 45.7077 11.011C48.7282 11.011 51.6251 12.278 53.7609 14.5332C55.8968 16.7884 57.0967 19.847 57.0967 23.0363C57.1071 26.0562 56.0409 28.9697 54.1102 31.1977C52.1795 33.4257 49.5255 34.805 46.6758 35.0616L46.7517 35.2421ZM45.6318 7.96468C44.8428 7.96842 44.0554 8.04214 43.278 8.18512C41.4632 5.31396 38.92 3.03979 35.939 1.62247C32.958 0.205154 29.6596 -0.298189 26.4206 0.170073C23.1816 0.638335 20.1326 2.0593 17.6222 4.2705C15.1118 6.4817 13.2411 9.39397 12.224 12.6745C9.04736 12.7463 6.02785 14.1475 3.8297 16.57C1.63155 18.9924 0.434782 22.2377 0.502744 25.5918C0.570707 28.9459 1.89783 32.1341 4.19209 34.455C6.48636 36.776 9.55985 38.0396 12.7365 37.9678H46.9035C48.7731 37.877 50.6074 37.3982 52.3017 36.5589C53.996 35.7196 55.5172 34.5362 56.7783 33.0761C58.0395 31.6161 59.0159 29.9082 59.6519 28.0497C60.2879 26.1912 60.5709 24.2187 60.4849 22.2447C60.3989 20.2708 59.9456 18.334 59.1507 16.545C58.3558 14.756 57.235 13.1499 55.8522 11.8183C54.4694 10.4866 52.8518 9.45568 51.0916 8.78416C49.3315 8.11264 47.4633 7.81369 45.5938 7.9045" fill="#56585A"/>
</svg>
