<svg xmlns="http://www.w3.org/2000/svg" width="30" height="31" viewBox="-5 -5 30 31" id="icon-telephone-" y="3494">
    <path fill="#ffffff"
        d="m19.552 16.319-3.09-3.096c-.614-.614-1.633-.595-2.27.043l-1.556 1.56-.307-.172c-.983-.546-2.327-1.294-3.743-2.713-1.42-1.423-2.166-2.773-2.712-3.758-.058-.105-.113-.205-.168-.301l1.045-1.045.513-.515c.638-.64.655-1.66.042-2.276L4.216.949C3.604.334 2.585.353 1.947.992l-.87.878.024.023a5.048 5.048 0 0 0-.718 1.268 5.267 5.267 0 0 0-.319 1.287c-.408 3.388 1.137 6.485 5.33 10.688 5.797 5.809 10.468 5.37 10.669 5.349a5.21 5.21 0 0 0 1.287-.324c.46-.18.888-.424 1.26-.716l.02.017.882-.866c.636-.639.654-1.66.04-2.277z" />
</svg>