<svg width="148" height="36" viewBox="0 0 148 36" fill="none" xmlns="http://www.w3.org/2000/svg">
<g clip-path="url(#clip0_3493_25278)">
<path d="M0 0.544667H4.78439V18.0194H13.7213V22.4675H0V0.544667Z" fill="#0098A7"/>
<path d="M39.9902 0.544667H45.0454L50.4617 16.7031H50.5069L55.9231 0.544667H60.6624L53.0345 22.4675H47.573L39.9902 0.544667Z" fill="#0098A7"/>
<path d="M112.523 0.544667H118.075L126.335 22.4675H121.189L119.474 17.7925H110.718L109.003 22.4675H104.173L112.523 0.544667ZM115.051 5.71901L112.072 13.7075H118.03L115.051 5.71901Z" fill="#0098A7"/>
<path d="M26.8557 0.226945C20.1757 0.226945 15.5267 4.99278 15.5267 11.5288C15.5267 18.0648 20.1757 22.8306 26.8557 22.8306C33.5358 22.8306 38.1848 18.1102 38.1848 11.5288C38.1848 4.94739 33.5358 0.226945 26.8557 0.226945ZM26.8557 18.1556C22.7935 18.1556 20.4465 15.2507 20.4465 11.4834C20.4465 7.71612 22.7935 4.81123 26.8557 4.81123C30.8728 4.81123 33.265 7.71612 33.265 11.4834C33.265 15.2507 30.8728 18.1556 26.8557 18.1556Z" fill="#0098A7"/>
<path d="M69.7798 18.0194V4.99278H80.0708V0.544667H64.9954V22.4675H80.3416V18.0194H69.7798Z" fill="#0098A7"/>
<path d="M78.175 8.71468H73.7066V14.116H78.175V8.71468Z" fill="#0098A7"/>
<path d="M98.8472 5.90056C98.4861 5.62823 96.8161 4.40273 93.792 4.40273C91.7158 4.40273 90.3166 5.12895 90.3166 6.53601C90.3166 7.89768 91.4449 8.39695 93.1601 8.80546C93.5663 8.89623 95.1912 9.30473 95.6877 9.39551C99.5694 10.3487 101.691 12.3912 101.691 16.0677C101.691 20.2889 98.1702 23.0122 93.2504 23.0122C88.2854 23.0122 85.6224 20.9697 84.9454 20.425L87.2022 16.567C87.5181 16.8393 89.5492 18.6095 92.9344 18.6095C95.7328 18.6095 96.8612 17.5655 96.8612 16.2946C96.8612 14.9784 95.6426 14.2521 93.792 13.8436C93.2504 13.7075 91.6706 13.3443 91.1741 13.2082C87.5181 12.3004 85.487 10.3941 85.487 6.85373C85.5322 3.40417 87.7438 0 93.4309 0C98.125 0 100.337 1.49784 101.149 2.08789L98.8472 5.90056Z" fill="#0098A7"/>
<path d="M144.434 15.9315C143.351 17.3386 141.636 18.1556 139.424 18.1556C135.362 18.1556 133.015 15.2507 133.015 11.4834C133.015 7.71612 135.407 4.85662 139.469 4.85662C141.636 4.85662 143.351 5.71901 144.434 7.08068L147.955 3.76728C145.969 1.54322 142.99 0.226945 139.469 0.226945C132.789 0.226945 128.14 4.94739 128.14 11.5288C128.14 18.1102 132.789 22.8306 139.469 22.8306C143.035 22.8306 145.969 21.469 148 19.2449L144.434 15.9315Z" fill="#0098A7"/>
<path d="M0 25.856H2.48322C4.7407 25.856 6.27578 27.2284 6.27578 29.6071C6.27578 31.9859 4.78585 33.404 2.48322 33.404H0V25.856ZM2.39292 32.4434C4.06345 32.4434 5.14704 31.437 5.14704 29.5614C5.14704 27.7316 4.0183 26.7252 2.39292 26.7252H1.03844V32.4434H2.39292Z" fill="#0098A7"/>
<path d="M9.88774 27.8688C11.3777 27.8688 12.1904 29.0124 12.1904 30.3848C12.1904 30.5221 12.1452 30.8423 12.1452 30.8423H8.26235C8.3075 32.0317 9.16535 32.6264 10.1135 32.6264C11.0165 32.6264 11.6937 31.9859 11.6937 31.9859L12.1001 32.7636C12.1001 32.7636 11.2874 33.5413 10.0232 33.5413C8.35265 33.5413 7.17877 32.3061 7.17877 30.705C7.22392 28.9667 8.35265 27.8688 9.88774 27.8688ZM11.1519 30.0646C11.1068 29.1497 10.565 28.6922 9.88774 28.6922C9.1202 28.6922 8.4881 29.1954 8.3075 30.0646H11.1519Z" fill="#0098A7"/>
<path d="M13.4997 31.9859C13.4997 31.9859 14.0866 32.6264 15.0348 32.6264C15.4863 32.6264 15.9378 32.3976 15.9378 31.9402C15.9378 30.9338 13.1836 31.1625 13.1836 29.3784C13.1836 28.4177 14.0415 27.8231 15.1251 27.8231C16.299 27.8231 16.8408 28.4177 16.8408 28.4177L16.4344 29.1954C16.4344 29.1954 15.9378 28.6922 15.1251 28.6922C14.6736 28.6922 14.2672 28.8752 14.2672 29.3327C14.2672 30.2933 17.0214 30.1103 17.0214 31.8487C17.0214 32.7636 16.2538 33.404 15.0799 33.404C13.7706 33.404 13.0482 32.6264 13.0482 32.6264L13.4997 31.9859Z" fill="#0098A7"/>
<path d="M18.1501 25.856H19.1885V26.9081H18.1501V25.856ZM18.1501 27.9603H19.1885V33.404H18.1501V27.9603Z" fill="#0098A7"/>
<path d="M22.7102 34.7307C23.6583 34.7307 24.3807 34.319 24.3807 33.2211V32.8093C24.3807 32.6264 24.3807 32.4891 24.3807 32.4891C24.0647 33.0381 23.568 33.3125 22.8005 33.3125C21.3106 33.3125 20.4076 32.1232 20.4076 30.5678C20.4076 29.0124 21.2654 27.8688 22.7553 27.8688C24.0195 27.8688 24.4259 28.6922 24.4259 28.6922C24.4259 28.6922 24.4259 28.6007 24.4259 28.5092V28.006H25.4192V33.1753C25.4192 34.9594 24.0647 35.6456 22.7102 35.6456C22.0781 35.6456 21.4009 35.4626 20.9042 35.1881L21.2203 34.3647C21.2654 34.3647 21.9426 34.7307 22.7102 34.7307ZM24.4259 30.5678C24.4259 29.1497 23.7486 28.738 22.9359 28.738C21.9878 28.738 21.4912 29.4242 21.4912 30.5221C21.4912 31.6657 22.0781 32.3976 23.0262 32.3976C23.7486 32.4434 24.4259 31.9859 24.4259 30.5678Z" fill="#0098A7"/>
<path d="M27.0445 27.9603H28.0378V28.6922C28.0378 28.921 28.0378 29.1039 28.0378 29.1039C28.2636 28.6465 28.8957 27.8688 30.0244 27.8688C31.2886 27.8688 31.8755 28.555 31.8755 29.9274V33.404H30.8371V30.1561C30.8371 29.3784 30.6565 28.7837 29.8438 28.7837C29.0311 28.7837 28.399 29.3327 28.1733 30.1103C28.1281 30.3391 28.083 30.5678 28.083 30.8423V33.404H27.0445V27.9603Z" fill="#0098A7"/>
<path d="M35.6681 27.8688C37.158 27.8688 37.9707 29.0124 37.9707 30.3848C37.9707 30.5221 37.9256 30.8423 37.9256 30.8423H34.0427C34.0879 32.0317 34.9457 32.6264 35.8938 32.6264C36.7968 32.6264 37.4741 31.9859 37.4741 31.9859L37.8804 32.7636C37.8804 32.7636 37.0677 33.5413 35.8035 33.5413C34.133 33.5413 32.9591 32.3061 32.9591 30.705C33.0043 28.9667 34.1782 27.8688 35.6681 27.8688ZM36.9323 30.0646C36.8871 29.1497 36.3453 28.6922 35.6681 28.6922C34.9006 28.6922 34.2685 29.1954 34.0879 30.0646H36.9323Z" fill="#0098A7"/>
<path d="M41.3118 27.8688C42.5308 27.8688 42.9372 28.738 42.9372 28.738C42.9372 28.738 42.9372 28.555 42.9372 28.372V25.856H43.9756V33.404H43.0275V32.9008C43.0275 32.6721 43.0275 32.5349 43.0275 32.5349C43.0275 32.5349 42.576 33.5413 41.2666 33.5413C39.8218 33.5413 38.9189 32.3976 38.9189 30.705C38.8737 28.9667 39.9121 27.8688 41.3118 27.8688ZM41.4472 32.6264C42.2599 32.6264 42.9823 32.0774 42.9823 30.705C42.9823 29.7444 42.4857 28.7837 41.4924 28.7837C40.6345 28.7837 39.9573 29.4699 39.9573 30.705C39.9573 31.8487 40.5442 32.6264 41.4472 32.6264Z" fill="#0098A7"/>
<path d="M48.7614 28.8752H48.0842V28.0518H48.7614V27.7773C48.7614 25.9932 50.0708 25.7645 50.748 25.7645C50.9738 25.7645 51.1544 25.8102 51.1544 25.8102V26.6794C51.1544 26.6794 51.0641 26.6794 50.8835 26.6794C50.4771 26.6794 49.7547 26.8166 49.7547 27.8231V28.0518H51.0189V28.8752H49.7547V33.404H48.7614V28.8752Z" fill="#0098A7"/>
<path d="M54.5406 27.8688C56.1208 27.8688 57.4301 29.0582 57.4301 30.705C57.4301 32.3519 56.166 33.5413 54.5406 33.5413C52.9152 33.5413 51.651 32.3519 51.651 30.705C51.651 29.0582 52.9152 27.8688 54.5406 27.8688ZM54.5406 32.6264C55.5339 32.6264 56.3917 31.8029 56.3917 30.705C56.3917 29.5614 55.579 28.7837 54.5406 28.7837C53.5473 28.7837 52.6894 29.6071 52.6894 30.705C52.6894 31.8029 53.5021 32.6264 54.5406 32.6264Z" fill="#0098A7"/>
<path d="M58.604 27.9603H59.5973V28.921C59.5973 29.1497 59.5973 29.3327 59.5973 29.3327C59.8231 28.555 60.4552 27.9145 61.2678 27.9145C61.4033 27.9145 61.5387 27.9145 61.5387 27.9145V28.921C61.5387 28.921 61.4033 28.8752 61.2227 28.8752C60.5906 28.8752 59.9585 29.3327 59.7328 30.1561C59.6425 30.4763 59.5973 30.7965 59.5973 31.1167V33.404H58.604V27.9603Z" fill="#0098A7"/>
<path d="M65.9182 25.856H66.9567V32.4891H70.2977V33.404H65.9182V25.856Z" fill="#0098A7"/>
<path d="M71.2459 25.856H72.2843V26.9081H71.2459V25.856ZM71.291 27.9603H72.3295V33.404H71.291V27.9603Z" fill="#0098A7"/>
<path d="M74.1806 28.8752H73.5034V28.0518H74.1806V27.7773C74.1806 25.9932 75.4899 25.7645 76.1672 25.7645C76.3929 25.7645 76.5735 25.8102 76.5735 25.8102V26.6794C76.5735 26.6794 76.4832 26.6794 76.3026 26.6794C75.8963 26.6794 75.1739 26.8166 75.1739 27.8231V28.0518H76.4381V28.8752H75.1739V33.404H74.1806V28.8752Z" fill="#0098A7"/>
<path d="M79.734 27.8688C81.2239 27.8688 82.0366 29.0124 82.0366 30.3848C82.0366 30.5221 81.9915 30.8423 81.9915 30.8423H78.1086C78.1538 32.0317 79.0116 32.6264 79.9597 32.6264C80.8627 32.6264 81.54 31.9859 81.54 31.9859L81.9463 32.7636C81.9463 32.7636 81.1336 33.5413 79.8694 33.5413C78.1989 33.5413 77.025 32.3061 77.025 30.705C77.0702 28.9667 78.1989 27.8688 79.734 27.8688ZM80.9982 30.0646C80.953 29.1497 80.4112 28.6922 79.734 28.6922C78.9665 28.6922 78.3344 29.1954 78.1538 30.0646H80.9982Z" fill="#0098A7"/>
<path d="M86.9128 25.856H91.0214V26.7709H87.9512V29.2412H90.5699V30.1561H87.9512V33.404H86.9128V25.856Z" fill="#0098A7"/>
<path d="M92.0598 27.9603H93.0982V31.2082C93.0982 31.9402 93.2337 32.5349 94.0915 32.5349C95.1751 32.5349 95.8072 31.5742 95.8072 30.4763V27.9603H96.8456V33.404H95.8524V32.6721C95.8524 32.4434 95.8524 32.2604 95.8524 32.2604C95.6266 32.8093 94.9494 33.4955 93.9109 33.4955C92.6919 33.4955 92.1049 32.8551 92.1049 31.437V27.9603H92.0598Z" fill="#0098A7"/>
<path d="M99.4643 27.9603V28.921C99.4643 29.1497 99.4643 29.3327 99.4643 29.3327C99.6901 28.555 100.322 27.9145 101.135 27.9145C101.27 27.9145 101.406 27.9145 101.406 27.9145V28.921C101.406 28.921 101.27 28.8752 101.09 28.8752C100.458 28.8752 99.8255 29.3327 99.5998 30.1561C99.5095 30.4763 99.4643 30.7965 99.4643 31.1167V33.404H98.4259V27.9603H99.4643Z" fill="#0098A7"/>
<path d="M102.399 27.9603H103.392V28.6922C103.392 28.921 103.392 29.1039 103.392 29.1039C103.618 28.6465 104.25 27.8688 105.379 27.8688C106.643 27.8688 107.23 28.555 107.23 29.9274V33.404H106.192V30.1561C106.192 29.3784 106.011 28.7837 105.198 28.7837C104.386 28.7837 103.754 29.3327 103.528 30.1103C103.483 30.3391 103.437 30.5678 103.437 30.8423V33.404H102.399V27.9603Z" fill="#0098A7"/>
<path d="M108.765 25.856H109.804V26.9081H108.765V25.856ZM108.765 27.9603H109.804V33.404H108.765V27.9603Z" fill="#0098A7"/>
<path d="M111.61 28.8752H110.932V28.0518H111.655V26.4964H112.648V28.0518H113.912V28.8752H112.648V31.2997C112.648 32.3976 113.416 32.5349 113.777 32.5349C113.912 32.5349 114.002 32.5349 114.002 32.5349V33.4498C114.002 33.4498 113.867 33.4498 113.641 33.4498C112.964 33.4498 111.61 33.2211 111.61 31.437V28.8752Z" fill="#0098A7"/>
<path d="M115.086 27.9603H116.124V31.2082C116.124 31.9402 116.26 32.5349 117.118 32.5349C118.201 32.5349 118.833 31.5742 118.833 30.4763V27.9603H119.872V33.404H118.879V32.6721C118.879 32.4434 118.879 32.2604 118.879 32.2604C118.653 32.8093 117.976 33.4955 116.937 33.4955C115.718 33.4955 115.131 32.8551 115.131 31.437V27.9603H115.086Z" fill="#0098A7"/>
<path d="M122.445 27.9603V28.921C122.445 29.1497 122.445 29.3327 122.445 29.3327C122.671 28.555 123.303 27.9145 124.116 27.9145C124.251 27.9145 124.387 27.9145 124.387 27.9145V28.921C124.387 28.921 124.251 28.8752 124.071 28.8752C123.439 28.8752 122.807 29.3327 122.581 30.1561C122.491 30.4763 122.445 30.7965 122.445 31.1167V33.404H121.407V27.9603H122.445Z" fill="#0098A7"/>
<path d="M127.683 27.8688C129.173 27.8688 129.985 29.0124 129.985 30.3848C129.985 30.5221 129.94 30.8423 129.94 30.8423H126.057C126.103 32.0317 126.96 32.6264 127.908 32.6264C128.811 32.6264 129.489 31.9859 129.489 31.9859L129.895 32.7636C129.895 32.7636 129.082 33.5413 127.818 33.5413C126.148 33.5413 124.974 32.3061 124.974 30.705C125.019 28.9667 126.148 27.8688 127.683 27.8688ZM128.947 30.0646C128.902 29.1497 128.36 28.6922 127.683 28.6922C126.915 28.6922 126.283 29.1954 126.103 30.0646H128.947Z" fill="#0098A7"/>
<path d="M137.661 25.7188C139.467 25.7188 140.37 26.7252 140.37 26.7252L139.873 27.5028C139.873 27.5028 139.015 26.6794 137.706 26.6794C136.035 26.6794 134.952 27.9603 134.952 29.5614C134.952 31.1625 136.081 32.5349 137.706 32.5349C139.106 32.5349 140.009 31.5742 140.009 31.5742L140.55 32.3519C140.55 32.3519 139.512 33.5413 137.661 33.5413C135.403 33.5413 133.868 31.8029 133.868 29.6071C133.868 27.3656 135.494 25.7188 137.661 25.7188Z" fill="#0098A7"/>
<path d="M143.62 27.8688C145.201 27.8688 146.51 29.0582 146.51 30.705C146.51 32.3519 145.201 33.5413 143.62 33.5413C142.04 33.5413 140.731 32.3519 140.731 30.705C140.776 29.0582 142.04 27.8688 143.62 27.8688ZM143.62 32.6264C144.614 32.6264 145.472 31.8029 145.472 30.705C145.472 29.5614 144.659 28.7837 143.62 28.7837C142.627 28.7837 141.769 29.6071 141.769 30.705C141.815 31.8029 142.627 32.6264 143.62 32.6264Z" fill="#0098A7"/>
<path d="M147.187 32.5349H148V33.404H147.187V32.5349Z" fill="#0098A7"/>
</g>
<defs>
<clipPath id="clip0_3493_25278">
<rect width="148" height="35.6463" fill="white"/>
</clipPath>
</defs>
</svg>
