<svg width="16" height="16" viewBox="0 0 16 16" fill="none" xmlns="http://www.w3.org/2000/svg">
<path d="M11.1112 7.22222V8.05722H11.9462V7.22222H11.1112ZM4.88894 7.22222H4.05394V8.05722H4.88894V7.22222ZM8.83505 10.3333C8.83505 9.87218 8.46121 9.49833 8.00005 9.49833C7.5389 9.49833 7.16505 9.87218 7.16505 10.3333H8.83505ZM7.16505 11.8889C7.16505 12.35 7.5389 12.7239 8.00005 12.7239C8.46121 12.7239 8.83505 12.35 8.83505 11.8889H7.16505ZM3.33339 8.05722H12.6667V6.38722H3.33339V8.05722ZM13.3873 8.77778V13.4444H15.0573V8.77778H13.3873ZM12.6667 14.165H3.33339V15.835H12.6667V14.165ZM2.61283 13.4444V8.77778H0.942832V13.4444H2.61283ZM3.33339 14.165C2.93544 14.165 2.61283 13.8424 2.61283 13.4444H0.942832C0.942832 14.7647 2.01312 15.835 3.33339 15.835V14.165ZM13.3873 13.4444C13.3873 13.8424 13.0647 14.165 12.6667 14.165V15.835C13.987 15.835 15.0573 14.7647 15.0573 13.4444H13.3873ZM12.6667 8.05722C13.0647 8.05722 13.3873 8.37983 13.3873 8.77778H15.0573C15.0573 7.45751 13.987 6.38722 12.6667 6.38722V8.05722ZM3.33339 6.38722C2.01312 6.38722 0.942832 7.45751 0.942832 8.77778H2.61283C2.61283 8.37983 2.93544 8.05722 3.33339 8.05722V6.38722ZM10.2762 4.11111V7.22222H11.9462V4.11111H10.2762ZM11.1112 6.38722H4.88894V8.05722H11.1112V6.38722ZM5.72394 7.22222V4.11111H4.05394V7.22222H5.72394ZM8.00005 1.835C9.25712 1.835 10.2762 2.85405 10.2762 4.11111H11.9462C11.9462 1.93173 10.1794 0.165 8.00005 0.165V1.835ZM8.00005 0.165C5.82068 0.165 4.05394 1.93173 4.05394 4.11111H5.72394C5.72394 2.85405 6.74299 1.835 8.00005 1.835V0.165ZM7.16505 10.3333V11.8889H8.83505V10.3333H7.16505Z" fill="black"/>
</svg>
