<?xml version="1.0" encoding="UTF-8"?>
<svg width="40px" height="34px" viewBox="0 0 40 34" version="1.1" xmlns="http://www.w3.org/2000/svg" xmlns:xlink="http://www.w3.org/1999/xlink">
    <title>Group 5</title>
    <g id="HiFi---Configurator" stroke="none" stroke-width="1" fill="none" fill-rule="evenodd">
        <g id="StealthTech-2" transform="translate(-988.000000, -198.000000)" fill-rule="nonzero">
            <g id="Not-Available" transform="translate(969.000000, 181.000000)">
                <g id="Group" transform="translate(14.000000, 12.000000)">
                    <g id="Group-5" transform="translate(5.000000, 5.000000)">
                        <path d="M5.85292974,31.1906311 L34.1359276,31.1906311 C35.1900916,31.1906311 36.0872526,30.6154847 36.6479781,29.7306441 C37.2984198,28.6688354 37.2759908,27.3858165 36.7601232,26.2797658 L23.8410061,5.44176968 C22.9214161,4.11450878 21.777536,2.8093689 20.0056432,2.8093689 C18.2337504,2.8093689 17.0674412,4.11450878 16.1478512,5.44176968 L3.25116309,26.2797658 C2.71286655,27.4079375 2.69043752,28.6688354 3.36330821,29.7306441 C3.90160476,30.6154847 4.79876567,31.1906311 5.85292974,31.1906311 Z" id="Path" fill="#FFFFFF"></path>
                        <path d="M5.85292974,34 C3.83431769,34 1.97270879,32.9160703 0.918544717,31.2127521 C-0.270193494,29.2882238 -0.270193494,26.9876383 0.716683511,24.9746259 L13.7928038,3.87117762 C15.2731193,1.72543917 17.2020153,0 20.0056432,0 C22.809271,0 24.738167,1.72543917 26.2184825,3.87117762 L39.2273158,24.8640208 C40.3039088,26.8327912 40.2590508,29.3103448 39.0703126,31.2127521 C38.0161485,32.9160703 36.1769686,34 34.1359276,34 L5.85292974,34 Z M20.0056432,22.9837345 C21.1943814,22.9837345 22.1364003,23.9349382 22.1364003,25.107352 C22.1364003,26.2797658 21.1943814,27.2088484 20.0056432,27.2088484 C18.816905,27.2088484 17.852457,26.2797658 17.852457,25.107352 C17.852457,23.9349382 18.816905,22.9837345 20.0056432,22.9837345 Z M20.0056432,20.8822381 C19.2206274,20.8822381 18.6599018,20.2407287 18.5701857,19.4664932 L17.852457,13.1177619 C17.7403119,12.0338321 18.906621,11.0162655 20.0056432,11.0162655 C21.1046653,11.0162655 22.2709745,12.0338321 22.1364003,13.1177619 L21.4186716,19.4664932 C21.3513845,20.2186077 20.813088,20.8822381 20.0056432,20.8822381 Z M5.85292974,31.1906311 L34.1359276,31.1906311 C35.1900916,31.1906311 36.0872526,30.6154847 36.6479781,29.7306441 C37.2984198,28.6688354 37.2759908,27.3858165 36.7601232,26.2797658 L23.8410061,5.44176968 C22.9214161,4.11450878 21.777536,2.8093689 20.0056432,2.8093689 C18.2337504,2.8093689 17.0674412,4.11450878 16.1478512,5.44176968 L3.25116309,26.2797658 C2.71286655,27.4079375 2.69043752,28.6688354 3.36330821,29.7306441 C3.90160476,30.6154847 4.79876567,31.1906311 5.85292974,31.1906311 Z" id="Shape" fill="#00838F"></path>
                    </g>
                </g>
            </g>
        </g>
    </g>
</svg>