<svg width="48" height="49" viewBox="0 0 48 49" fill="none" xmlns="http://www.w3.org/2000/svg">
<path d="M13.7718 10.2853L14.3449 10.6861L14.918 10.2853L17.6702 8.36056L20.4213 10.2846L20.9943 10.6853L21.5674 10.2847L24.3203 8.36007L27.0739 10.2847L27.6468 10.6852L28.2198 10.2847L30.9728 8.36005L33.7277 10.2852L34.3005 10.6854L34.8733 10.2852L37.5251 8.43217L39.8788 11.4626L37.9654 14.1992L37.5646 14.7724L37.9655 15.3455L39.8897 18.0957L37.9655 20.8469L37.5646 21.42L37.9654 21.9931L39.8898 24.7448L37.9654 27.4964L37.5647 28.0694L37.9653 28.6425L39.8899 31.3955L37.9653 34.149L37.5648 34.722L37.9653 35.2949L39.89 38.0479L37.9648 40.8028L37.5646 41.3756L37.9648 41.9484L39.8065 44.584L37.626 46.1378L34.8763 44.2153L34.3031 43.8145L33.73 44.2154L30.9798 46.1397L28.2282 44.2153L27.6551 43.8145L27.082 44.2153L24.3303 46.1397L21.5787 44.2153L21.0057 43.8146L20.4326 44.2152L17.6797 46.1398L14.9261 44.2152L14.3532 43.8147L13.7802 44.2152L11.0272 46.1399L8.27228 44.2147L7.69948 43.8145L7.12669 44.2147L4.47459 46.068L2.12122 43.038L4.03465 40.3014L4.43544 39.7282L4.03447 39.1551L2.11026 36.4049L4.03455 33.6537L4.43542 33.0806L4.03459 32.5075L2.1102 29.7558L4.03459 27.0042L4.43532 26.4312L4.03468 25.8581L2.11006 23.1052L4.03474 20.3516L4.43522 19.7787L4.03469 19.2057L2.11004 16.4527L4.03518 13.6978L4.43544 13.125L4.03518 12.5522L2.19347 9.91665L4.37397 8.36277L7.1237 10.2854L7.69691 10.6861L8.26999 10.2852L11.0202 8.36095L13.7718 10.2853ZM37.2338 8.05718C37.2336 8.05692 37.2334 8.05667 37.2332 8.05642L37.2334 8.05672L37.2338 8.05718ZM40.1048 11.7536C40.1048 11.7536 40.1048 11.7535 40.1047 11.7535L40.1048 11.7536ZM37.9151 46.34L37.9143 46.3394C37.9149 46.3398 37.9154 46.3402 37.916 46.3406L37.9151 46.34ZM24.6174 46.3404L24.6168 46.34L24.6174 46.3404ZM4.08511 46.3401C4.08542 46.3399 4.08573 46.3397 4.08604 46.3395L4.08513 46.3401L4.37115 46.7494L4.08511 46.3401ZM10.7331 8.16019L10.7337 8.1606L10.7331 8.16019Z" fill="white" stroke="#56585A" stroke-width="2"/>
<path d="M19.5218 4.53529L20.0949 4.93609L20.668 4.53529L23.4202 2.61056L26.1713 4.53459L26.7443 4.93533L27.3174 4.53469L30.0703 2.61007L32.8239 4.53474L33.3968 4.93523L33.9698 4.53469L36.7228 2.61005L39.4777 4.53518L40.0505 4.93545L40.6233 4.53518L43.2751 2.68217L45.6288 5.71258L43.7154 8.44921L43.3146 9.02242L43.7155 9.5955L45.6397 12.3457L43.7155 15.0969L43.3146 15.67L43.7154 16.2431L45.6398 18.9948L43.7154 21.7464L43.3147 22.3194L43.7153 22.8925L45.6399 25.6455L43.7153 28.399L43.3148 28.972L43.7153 29.5449L45.64 32.2979L43.7148 35.0528L43.3146 35.6256L43.7148 36.1984L45.5565 38.834L43.376 40.3878L40.6263 38.4653L40.0531 38.0645L39.48 38.4654L36.7298 40.3897L33.9782 38.4653L33.4051 38.0645L32.832 38.4653L30.0803 40.3897L27.3287 38.4653L26.7557 38.0646L26.1826 38.4652L23.4297 40.3898L20.6761 38.4652L20.1032 38.0647L19.5302 38.4652L16.7772 40.3899L14.0223 38.4647L13.4495 38.0645L12.8767 38.4647L10.2246 40.318L7.87122 37.288L9.78465 34.5514L10.1854 33.9782L9.78447 33.4051L7.86026 30.6549L9.78455 27.9037L10.1854 27.3306L9.78459 26.7575L7.8602 24.0058L9.78459 21.2542L10.1853 20.6812L9.78468 20.1081L7.86006 17.3552L9.78474 14.6016L10.1852 14.0287L9.78469 13.4557L7.86004 10.7027L9.78518 7.9478L10.1854 7.37501L9.78518 6.80221L7.94347 4.16665L10.124 2.61277L12.8737 4.53535L13.4469 4.93613L14.02 4.53517L16.7702 2.61095L19.5218 4.53529ZM42.9838 2.30718C42.9836 2.30692 42.9834 2.30667 42.9832 2.30642L42.9834 2.30672L42.9838 2.30718ZM45.8548 6.00361C45.8548 6.00356 45.8548 6.00351 45.8547 6.00346L45.8548 6.00361ZM43.6651 40.59L43.6643 40.5894C43.6649 40.5898 43.6654 40.5902 43.666 40.5906L43.6651 40.59ZM30.3674 40.5904L30.3668 40.59L30.3674 40.5904ZM9.83511 40.5901C9.83542 40.5899 9.83573 40.5897 9.83604 40.5895L9.83513 40.5901L10.1212 40.9994L9.83511 40.5901ZM16.4831 2.41019L16.4837 2.4106L16.4831 2.41019Z" fill="white" stroke="#56585A" stroke-width="2"/>
</svg>
