<svg version="1.1" id="Layer_1" xmlns="http://www.w3.org/2000/svg" x="0" y="0" viewBox="0 0 81 63" width="81px" height="63px" xml:space="preserve">
  <style>
    .st1{fill:#555759}.st3{fill:#fff;stroke:#555759;stroke-width:.3182;stroke-miterlimit:10}.st4{fill:#0099a8}
  </style>
  <path class="st1" d="M20.1 52.7L20.1 52.7 20.1 52.7l0-1.8c0 0 0 0 0 0-.1 0-.1.1-.2.1C19.6 51 19.3 51 19 51c-.2 0-.4 0-.5 0-.2 0-.3-.1-.4-.1 0 0-.1 0-.1 0l0 1.8c0 0-.1.4 1 .4C19 53 20 53 20.1 52.7L20.1 52.7 20.1 52.7zM68.8 51.8L68.8 51.8 68.8 51.8l0-1.8c0 0 0 0 0 0-.1 0-.1.1-.2.1-.2 0-.5.1-.8.1-.2 0-.4 0-.5 0-.2 0-.3-.1-.4-.1 0 0-.1 0-.1 0l0 1.8c0 0-.1.4 1 .4C67.8 52.1 68.8 52.1 68.8 51.8L68.8 51.8 68.8 51.8zM41.1 57.9l0-1.8c0 0 0 0 0 0-.1 0-.1.1-.2.1-.2 0-.5.1-.8.1-.2 0-.4 0-.5 0-.2 0-.3-.1-.4-.1 0 0-.1 0-.1 0l0 1.8c0 0 .1.4 1 .4C40 58.3 41.1 58.3 41.1 57.9L41.1 57.9 41.1 57.9 41.1 57.9 41.1 57.9z"/>
  <path class="st3" d="M69.8,39.1l-23.1-3.7l-29.3,4.2c-0.4,0.1-0.6,0.4-0.6,0.7l0,11c0,0.1,0.1,0.2,0.2,0.2l23.1,5.7	c0.1,0,0.2,0,0.2,0l29.8-6.5c0.2,0,0.3-0.2,0.3-0.4l0-10.6C70.3,39.4,70.1,39.1,69.8,39.1z"/>
  <path class="st3" d="M67.8 39.6L40.4 44c-.2 0-.5 0-.7 0l-21.4-4.1M40 44.4L40 57.2"/>
  <path class="st4" d="M52.8 36.6L56.4 37.2 56 37.3 52.4 36.7zM57.4 37.4L60.6 37.9 60 38 56.7 37.5zM31.9 38L35.5 37.4 34.8 37.3 31.1 37.8z"/>
  <path class="st3" d="M69,27.8l-21.2-2.1c-0.7-0.1-1.4-0.1-2,0l-27.9,3c-0.7,0.1-1.2,0.7-1.2,1.3l0,5.4c0,0.7,0.5,1.3,1.2,1.4	l21.1,3.9c0.8,0.1,1.6,0.2,2.4,0l27.8-4.4c0.7-0.1,1.2-0.7,1.2-1.4l0-5.6C70.3,28.5,69.8,27.9,69,27.8z"/>
  <path class="st3" d="M66.6 28.5l-25.6 3c-.6.1-1.2.1-1.9 0l-18.7-2.2M40.1 32.4L40.1 40.1M19 6.2c-1 0-2 .2-2.9.6-.3.2-.6.4-.8.8l0 0C15 8 14.9 8.5 14.8 9c-.1 1.3.1 2.2.3 2.7.1.2.1.4.1.6l0 .3c0 .2 0 .3 0 .5-.3 1.9.1 3.2.3 3.8.1.3.2.6.2.9l0 .3c0 .1 0 .1 0 .2-.1.8 0 1.5.1 2 .2.9.7 1.7 1.5 2.2l.2.1c.4.3.8.4 1.3.5.7.1 1.7.2 2.1.1"/>
  <path class="st3" d="M48.8,18.9c-0.4,0.7-1.1,1.2-2,1.4c-0.1,0-1.5,0.2-1.6,0.2c-0.7,0.1-0.7,0.1-1.7,0.2c-2.5,0.3-4.9,0.5-7.4,0.8	c-2.7,0.3-5.4,0.6-8.2,0.9c-1.9,0.2-3.7,0.4-5.6,0.6c-0.6,0.1-1.3,0.2-1.9,0.1c-0.5-0.1-1.3-0.4-1.6-1v0c-0.1-0.3-0.2-0.6-0.1-0.9	c0.2-1.4,0-2.5-0.2-3c-0.1-0.3-0.2-0.6-0.2-0.9l0-0.1c0-0.2,0-0.4,0-0.5c0.2-1.8-0.2-3-0.5-3.7c-0.2-0.4-0.2-0.7-0.2-1.1l0,0	c0-0.1,0-0.3,0-0.4c0.4-1.8,0-3-0.2-3.5c0-0.1-0.1-0.2-0.1-0.4l0,0c-0.1-0.4,0-0.9,0.4-1.1c0.1,0,0.1-0.1,0.2-0.1	C18.8,6.1,19.8,6,20.8,6c1,0,2-0.1,3.1-0.1c2.4-0.1,4.7-0.2,7.1-0.3c2.6-0.1,5.3-0.2,7.9-0.4c1.9-0.1,2-0.1,3.9-0.2	c0.8,0,2.1-0.1,2.9,0c0.5,0.1,1.4,0.4,1.8,0.8"/>
  <path class="st3" d="M47.5,5.9c0,0,1.2,1.2,0.9,3.2c0,0.2,0,0.4,0,0.5l0,0c0,0.2,0.1,0.3,0.2,0.5c0.3,0.5,0.9,2,0.5,4.2	c0,0.2,0,0.4,0,0.5l0,0.3c0,0.1,0,0.3,0.1,0.4c0.1,0.5,0.5,2-0.4,3.5"/>
</svg>
