<svg version="1.1" id="Layer_1" xmlns="http://www.w3.org/2000/svg" x="0" y="0" viewBox="0 0 81 63" width="81px" height="63px" xml:space="preserve">
  <style>
    .st0{fill:#555759}.st2{fill:#fff;stroke:#555759;stroke-width:.5;stroke-miterlimit:10}
  </style>
  <path class="st0" d="M25.39 45.57l0-2.09c-.01 0-.01.01-.02.01-.07.04-.16.07-.27.1-.23.05-.53.09-.87.09-.22 0-.43-.01-.61-.04-.18-.03-.33-.06-.45-.1-.04-.02-.07-.03-.1-.05l0 2.05c0 0 .08.47 1.15.48C24.21 46.02 25.38 46.02 25.39 45.57L25.39 45.57 25.39 45.57 25.39 45.57 25.39 45.57zM57.78 52.74l0-2.15c-.01 0-.01.01-.02.01-.07.04-.17.07-.28.1-.23.06-.55.09-.9.09-.23 0-.44-.01-.63-.04-.19-.03-.34-.06-.46-.11-.04-.02-.08-.03-.11-.05l0 2.12c0 0 .08.49 1.19.5 0 0 1.21 0 1.21-.46L57.78 52.74 57.78 52.74 57.78 52.74 57.78 52.74z"/>
  <path d="M53.61,51.78l0.03-24.95c-0.09-5.05,1.11-11.09,7.96-10.32c0,0,3,0.24,4.09,4.12c0,0,1.31,6.18-4.3,8.11 l-0.13,20.99c0,0,0,0.47-0.28,0.55l-6.65,1.56c-0.7,0.19-1.71-0.01-1.71-0.01l-31.65-7.81c-0.84-0.22-0.84-0.78-0.84-0.78l0-2.77 l0.03-18.07c-0.09-5.05,1.89-9.99,8.74-9.23l31.7,3.25" fill="#fff" stroke="#555759" stroke-miterlimit="10"/>
  <path class="st2" d="M33.36 34.66c0 0 0-5.03 0-5.34s.2-.3.2-.3l5.5.96c0 0 .22.03.22.24v5.67M53.6 38.7L20.6 32.2M25.2 33.1L25.2 45M48.2 37.6L48.2 50.6"/>
</svg>
