<svg width="22" height="23" viewBox="0 0 22 23" fill="none" xmlns="http://www.w3.org/2000/svg">
<path d="M0 5.65021V3.55029C0 2.69992 0.295989 1.97915 0.887968 1.38797C1.47915 0.795989 2.19992 0.5 3.05029 0.5H5.15021V2.59992H3.05029C2.7839 2.59992 2.55871 2.69192 2.37471 2.87591C2.19152 3.05911 2.09992 3.2839 2.09992 3.55029V5.65021H0ZM3.05029 22.5C2.19992 22.5 1.47915 22.204 0.887968 21.612C0.295989 21.0209 0 20.3001 0 19.4497V17.3498H2.09992V19.4497C2.09992 19.7161 2.19152 19.9413 2.37471 20.1253C2.55871 20.3085 2.7839 20.4001 3.05029 20.4001H5.15021V22.5H3.05029ZM19.9001 5.65021V3.55029C19.9001 3.2839 19.8085 3.05911 19.6253 2.87591C19.4413 2.69192 19.2161 2.59992 18.9497 2.59992H16.8498V0.5H18.9497C19.8001 0.5 20.5209 0.795989 21.112 1.38797C21.704 1.97915 22 2.69992 22 3.55029V5.65021H19.9001ZM16.8498 22.5V20.4001H18.9497C19.2161 20.4001 19.4413 20.3085 19.6253 20.1253C19.8085 19.9413 19.9001 19.7161 19.9001 19.4497V17.3498H22V19.4497C22 20.3001 21.704 21.0209 21.112 21.612C20.5209 22.204 19.8001 22.5 18.9497 22.5H16.8498ZM11 19.2997C10.8168 19.2997 10.6376 19.2749 10.4624 19.2253C10.2872 19.1749 10.1248 19.1081 9.97524 19.0249L4.97502 16.1498C4.64143 15.9666 4.38744 15.7206 4.21305 15.4119C4.03785 15.1039 3.95026 14.7583 3.95026 14.3751V8.6249C3.95026 8.24172 4.03785 7.89613 4.21305 7.58814C4.38744 7.27935 4.64143 7.03336 4.97502 6.85017L9.97524 3.97507C10.1248 3.89188 10.2872 3.82508 10.4624 3.77468C10.6376 3.72508 10.8168 3.70028 11 3.70028C11.1832 3.70028 11.3624 3.72508 11.5376 3.77468C11.7128 3.82508 11.8752 3.89188 12.0248 3.97507L17.025 6.85017C17.3586 7.03336 17.6126 7.27935 17.787 7.58814C17.9621 7.89613 18.0497 8.24172 18.0497 8.6249V14.3751C18.0497 14.7583 17.9621 15.1039 17.787 15.4119C17.6126 15.7206 17.3586 15.9666 17.025 16.1498L12.0248 19.0249C11.8752 19.1081 11.7128 19.1749 11.5376 19.2253C11.3624 19.2749 11.1832 19.2997 11 19.2997ZM9.95004 16.5998V12.1L6.05018 9.82486V14.3499L9.95004 16.5998ZM11 10.3L14.8495 8.02493L11 5.80021L7.15054 8.02493L11 10.3ZM12.05 16.5998L15.9498 14.3499V9.82486L12.05 12.1V16.5998Z" fill="#FFFFFF"/>
</svg>
