<svg width="19" height="20" viewBox="0 0 19 20" fill="none" xmlns="http://www.w3.org/2000/svg">
<path d="M13.714 13.8807C12.9865 14.6083 11.5189 16.0758 10.4134 17.1813C9.63237 17.9624 8.36757 17.9623 7.58652 17.1813C6.5009 16.0957 5.06044 14.6552 4.28593 13.8807C1.68244 11.2772 1.68244 7.05612 4.28593 4.45262C6.88943 1.84913 11.1105 1.84913 13.714 4.45262C16.3175 7.05612 16.3175 11.2772 13.714 13.8807Z" stroke="#00808C" stroke-width="2" stroke-linecap="round" stroke-linejoin="round"/>
<path d="M11.5 9.16667C11.5 10.5474 10.3807 11.6667 8.99998 11.6667C7.61927 11.6667 6.49998 10.5474 6.49998 9.16667C6.49998 7.78596 7.61927 6.66667 8.99998 6.66667C10.3807 6.66667 11.5 7.78596 11.5 9.16667Z" stroke="#00808C" stroke-width="2" stroke-linecap="round" stroke-linejoin="round"/>
</svg>
