<svg width="29" height="28" viewBox="0 0 29 28" fill="none" xmlns="http://www.w3.org/2000/svg">
<path d="M20.1195 0.5L1 19.6195L8.88046 27.5L28 8.38046L20.1195 0.5ZM3.64868 19.6195L20.1195 3.14868L25.3513 8.38046L23.3976 10.3342L20.7817 7.7183L19.4574 9.04263L22.0733 11.6585L20.5878 13.144L18.9085 11.4647L17.5842 12.789L19.2635 14.4683L17.7781 15.9537L15.1622 13.3378L13.8378 14.6622L16.4537 17.2781L14.9683 18.7635L13.289 17.0842L11.9647 18.4085L13.644 20.0878L12.1585 21.5733L9.54263 18.9574L8.2183 20.2817L10.8342 22.8976L8.88046 24.8513L3.64868 19.6195Z" fill="#56585A" stroke="#56585A" stroke-width="0.5"/>
</svg>
