<svg width="103" height="16" viewBox="0 0 103 16" fill="none" xmlns="http://www.w3.org/2000/svg">
<g clip-path="url(#clip0_7810_70)">
<path d="M0 0.378698H3.3265V12.5286H9.54016V15.6213H0V0.378698Z" fill="#FFFFFF"/>
<path d="M27.8046 0.378698H31.3194L35.0852 11.6134H35.1166L38.8824 0.378698H42.1776L36.874 15.6213H33.0768L27.8046 0.378698Z" fill="#FFFFFF"/>
<path d="M78.2356 0.378698H82.0956L87.8386 15.6213H84.261L83.0685 12.3708H76.9803L75.7878 15.6213H72.4299L78.2356 0.378698ZM79.993 3.97633L77.9218 9.53057H82.0642L79.993 3.97633Z" fill="#FFFFFF"/>
<path d="M18.6724 0.157791C14.0278 0.157791 10.7954 3.4714 10.7954 8.01578C10.7954 12.5602 14.0278 15.8738 18.6724 15.8738C23.3169 15.8738 26.5493 12.5917 26.5493 8.01578C26.5493 3.43984 23.3169 0.157791 18.6724 0.157791ZM18.6724 12.6233C15.848 12.6233 14.2161 10.6035 14.2161 7.98422C14.2161 5.36489 15.848 3.34517 18.6724 3.34517C21.4654 3.34517 23.1286 5.36489 23.1286 7.98422C23.1286 10.6035 21.4654 12.6233 18.6724 12.6233Z" fill="#FFFFFF"/>
<path d="M48.5168 12.5286V3.4714H55.6719V0.378698H45.1903V15.6213H55.8602V12.5286H48.5168Z" fill="#FFFFFF"/>
<path d="M54.3538 6.05917H51.247V9.8146H54.3538V6.05917Z" fill="#FFFFFF"/>
<path d="M68.7268 4.10256C68.4758 3.91321 67.3146 3.06114 65.212 3.06114C63.7685 3.06114 62.7956 3.56607 62.7956 4.54438C62.7956 5.49112 63.5802 5.83826 64.7727 6.12229C65.0551 6.1854 66.1849 6.46943 66.5301 6.53254C69.229 7.19527 70.7039 8.61539 70.7039 11.1716C70.7039 14.1065 68.2561 16 64.8355 16C61.3834 16 59.5319 14.5799 59.0611 14.2012L60.6302 11.5187C60.8499 11.7081 62.2621 12.9389 64.6158 12.9389C66.5615 12.9389 67.346 12.213 67.346 11.3294C67.346 10.4142 66.4987 9.90927 65.212 9.62525C64.8355 9.53057 63.7371 9.27811 63.3919 9.18343C60.8499 8.55227 59.4377 7.22682 59.4377 4.76529C59.4691 2.36686 61.0068 0 64.961 0C68.2247 0 69.7625 1.04142 70.3273 1.45168L68.7268 4.10256Z" fill="#FFFFFF"/>
<path d="M100.423 11.0769C99.6696 12.0552 98.4771 12.6233 96.9394 12.6233C94.115 12.6233 92.4831 10.6035 92.4831 7.98422C92.4831 5.36489 94.1464 3.37673 96.9707 3.37673C98.4771 3.37673 99.6696 3.97633 100.423 4.92308L102.871 2.61933C101.49 1.07298 99.4186 0.157791 96.9707 0.157791C92.3262 0.157791 89.0938 3.43984 89.0938 8.01578C89.0938 12.5917 92.3262 15.8738 96.9707 15.8738C99.4499 15.8738 101.49 14.927 102.902 13.3807L100.423 11.0769Z" fill="#FFFFFF"/>
</g>
<defs>
<clipPath id="clip0_7810_70">
<rect width="102.902" height="16" fill="white"/>
</clipPath>
</defs>
</svg>
