<svg width="16" height="16" viewBox="0 0 16 16" fill="none" xmlns="http://www.w3.org/2000/svg">
<path d="M12.6001 3.5V4.09997C12.6001 4.26571 12.4657 4.40002 12.3 4.40002H3.30005C3.1344 4.40002 3 4.26572 3 4.09997V3.5C3 3.33435 3.13439 3.19995 3.30005 3.19995H6.00004V2.59997C6.00004 2.26859 6.26873 2 6.60011 2H9.00011C9.33149 2 9.60018 2.26859 9.60018 2.59997V3.19995H12.3002C12.4658 3.19995 12.6002 3.33434 12.6002 3.5H12.6001ZM4.122 12.884C4.16618 13.5138 4.69073 14.0016 5.32204 14H10.2899C10.9212 14.0016 11.4458 13.5138 11.4899 12.884L11.9999 5.59999H3.5999L4.122 12.884Z" fill="#56585A"/>
</svg>
