<svg width="24" height="24" viewBox="0 0 24 24" fill="none" xmlns="http://www.w3.org/2000/svg">
<path fill-rule="evenodd" clip-rule="evenodd" d="M4.0355 9.63604C3.10233 10.3797 2.63574 11.2226 2.63574 12.165C2.63574 13.2765 3.283 14.2733 4.57751 15.1554C5.87126 16.0367 7.53476 16.6123 9.56802 16.8822L8.01963 18.4066L9.40106 19.7891L13.2606 15.9765L9.40106 12.165H9.40105L8.01963 13.5704L9.30614 14.8569C7.81341 14.5871 6.66184 14.178 5.85144 13.6299C5.0418 13.0817 4.63698 12.5934 4.63698 12.165H4.5413L4.0355 9.63604ZM18.7409 11.0514C19.3757 11.4771 19.6931 11.8483 19.6931 12.165C19.6931 12.5142 19.3676 12.9232 18.7165 13.392C18.0654 13.8609 17.1365 14.2379 15.9297 14.523V16.5963C17.645 16.2151 19.0348 15.6315 20.0991 14.8455C21.1626 14.0587 21.6943 13.1652 21.6943 12.165C21.6943 10.8995 20.8529 9.81319 19.17 8.90607L18.7409 11.0514Z" fill="#56585A"/>
<path d="M6.96339 7.06483H7.52674C7.74057 7.06483 7.89682 6.99144 7.99551 6.84468C8.09694 6.69519 8.14766 6.49678 8.14766 6.24945C8.14766 6.01299 8.09557 5.82954 7.9914 5.69908C7.88997 5.5659 7.7529 5.49931 7.5802 5.49931C7.41845 5.49931 7.2855 5.56182 7.18133 5.68685C7.0799 5.81187 7.02918 5.96951 7.02918 6.15976H5.86547C5.86547 5.84992 5.93674 5.57269 6.0793 5.32808C6.22459 5.08075 6.42608 4.88778 6.68377 4.74916C6.9442 4.61055 7.23204 4.54124 7.5473 4.54124C8.09831 4.54124 8.53008 4.69209 8.8426 4.99378C9.15511 5.29547 9.31137 5.70859 9.31137 6.23315C9.31137 6.50222 9.24009 6.75227 9.09754 6.98329C8.95773 7.21159 8.77269 7.3869 8.54242 7.50921C8.82478 7.62879 9.03449 7.80818 9.17156 8.04735C9.31137 8.28653 9.38128 8.56919 9.38128 8.89534C9.38128 9.42262 9.21131 9.84525 8.87138 10.1632C8.53419 10.4812 8.09009 10.6402 7.53907 10.6402C7.02644 10.6402 6.60975 10.484 6.28901 10.1714C5.97101 9.85612 5.81201 9.443 5.81201 8.93203H6.97572C6.97572 9.14403 7.03192 9.32205 7.14432 9.4661C7.25671 9.61015 7.39926 9.68218 7.57197 9.68218C7.77209 9.68218 7.92972 9.60879 8.04486 9.46203C8.16274 9.31526 8.22168 9.11957 8.22168 8.87496C8.22168 8.29061 7.99277 7.99707 7.53496 7.99435H6.96339V7.06483Z" fill="#56585A"/>
<path d="M12.9629 4.56163V5.54008H12.8971C12.4612 5.5428 12.1144 5.67326 11.8567 5.93146C11.6018 6.18694 11.4469 6.54571 11.3921 7.00775C11.6415 6.72509 11.9541 6.58376 12.3296 6.58376C12.7628 6.58376 13.1082 6.76722 13.3659 7.13413C13.6263 7.50105 13.7565 7.99028 13.7565 8.60181C13.7565 8.99047 13.6825 9.34108 13.5345 9.65364C13.3864 9.9662 13.1781 10.2095 12.9094 10.3834C12.6435 10.5546 12.342 10.6402 12.0048 10.6402C11.462 10.6402 11.0261 10.4242 10.6971 9.99202C10.3709 9.55987 10.2078 8.97824 10.2078 8.24712V7.81905C10.2078 7.16403 10.3106 6.59055 10.5162 6.09861C10.7245 5.60667 11.0234 5.22888 11.4126 4.96524C11.8046 4.69888 12.2611 4.56435 12.7819 4.56163H12.9629ZM11.9636 7.53774C11.8156 7.53774 11.6909 7.58395 11.5894 7.67636C11.4908 7.76877 11.4167 7.88292 11.3674 8.01882V8.43466C11.3674 8.85321 11.4236 9.16577 11.536 9.37234C11.6484 9.5789 11.7964 9.68218 11.9801 9.68218C12.1665 9.68218 12.3159 9.58297 12.4283 9.38457C12.5407 9.18344 12.5969 8.9266 12.5969 8.61404C12.5969 8.29604 12.538 8.03784 12.4201 7.83943C12.3049 7.63831 12.1528 7.53774 11.9636 7.53774Z" fill="#56585A"/>
<path d="M17.9261 8.10443C17.9261 8.92524 17.7753 9.55308 17.4738 9.98794C17.175 10.4228 16.7473 10.6402 16.1908 10.6402C15.6398 10.6402 15.2135 10.4296 14.912 10.0083C14.6132 9.58433 14.4583 8.97824 14.4473 8.19004V7.0689C14.4473 6.25081 14.5967 5.62569 14.8955 5.19354C15.1943 4.75868 15.6234 4.54124 16.1826 4.54124C16.7419 4.54124 17.1709 4.75596 17.4697 5.18539C17.7685 5.61482 17.9206 6.22771 17.9261 7.02406V8.10443ZM16.7583 6.90175C16.7583 6.43427 16.7117 6.08366 16.6185 5.84992C16.5253 5.61618 16.38 5.49931 16.1826 5.49931C15.8125 5.49931 15.6206 5.92738 15.6069 6.78352V8.26343C15.6069 8.74178 15.6535 9.09783 15.7467 9.33157C15.8427 9.56531 15.9907 9.68218 16.1908 9.68218C16.38 9.68218 16.5198 9.57346 16.6103 9.35603C16.7035 9.13588 16.7528 8.80022 16.7583 8.34904V6.90175Z" fill="#56585A"/>
<path d="M18.8349 5.66646C18.8349 5.3539 18.9459 5.0889 19.168 4.87147C19.3928 4.65132 19.6559 4.54124 19.9575 4.54124C20.2563 4.54124 20.514 4.65132 20.7305 4.87147C20.9499 5.0889 21.0595 5.3539 21.0595 5.66646C21.0595 5.98174 20.9499 6.24674 20.7305 6.46145C20.514 6.67345 20.2563 6.77945 19.9575 6.77945C19.6587 6.77945 19.3969 6.67345 19.1721 6.46145C18.9473 6.24674 18.8349 5.98174 18.8349 5.66646ZM19.9575 6.17199C20.1028 6.17199 20.222 6.12307 20.3152 6.02523C20.4084 5.92738 20.455 5.80779 20.455 5.66646C20.455 5.52513 20.4084 5.40282 20.3152 5.29954C20.222 5.19626 20.1028 5.14462 19.9575 5.14462C19.8122 5.14462 19.6888 5.19626 19.5874 5.29954C19.4887 5.40011 19.4394 5.52241 19.4394 5.66646C19.4394 5.81051 19.4901 5.93146 19.5915 6.0293C19.6957 6.12443 19.8177 6.17199 19.9575 6.17199Z" fill="#56585A"/>
</svg>
