<svg width="16" height="16" viewBox="0 0 16 16" fill="none" xmlns="http://www.w3.org/2000/svg">
<rect x="3.41431" y="10.2422" width="6" height="6" rx="1" transform="rotate(-45 3.41431 10.2422)" fill="#56585A"/>
<path d="M11.431 4.70229C11.4813 4.75121 11.5617 4.75087 11.6115 4.70127L12.4086 3.90419C12.4334 3.87934 12.4472 3.84547 12.4471 3.81024C12.4469 3.77513 12.4325 3.74138 12.4074 3.71675C11.1171 2.4789 9.39336 1.79541 7.60528 1.8128C5.8172 1.83026 4.10723 2.54739 2.8414 3.81047L1.94719 2.91626C1.91367 2.88274 1.86385 2.87168 1.81927 2.88776C1.77469 2.90383 1.74356 2.94431 1.73912 2.99139L1.45191 6.07988C1.44861 6.11603 1.46149 6.15194 1.48714 6.17759C1.5128 6.20324 1.54871 6.21613 1.58485 6.21282L4.67334 5.92562C4.72054 5.92128 4.7609 5.89004 4.77698 5.84547C4.79306 5.80089 4.782 5.75107 4.74847 5.71754L3.82201 4.79108C4.83217 3.79437 6.18937 3.22818 7.6084 3.21155C9.02752 3.195 10.3977 3.72939 11.431 4.70229Z" fill="#56585A"/>
</svg>
