<svg width="20" height="20" viewBox="0 0 20 20" fill="none" xmlns="http://www.w3.org/2000/svg">
<path d="M6.73656 11.1183C6.90513 10.7818 7 10.402 7 10C7 9.59803 6.90513 9.21821 6.73656 8.88172M6.73656 11.1183C6.32611 11.9376 5.47874 12.5 4.5 12.5C3.11929 12.5 2 11.3807 2 10C2 8.61929 3.11929 7.5 4.5 7.5C5.47874 7.5 6.32611 8.06243 6.73656 8.88172M6.73656 11.1183L12.2634 13.8817M6.73656 8.88172L12.2634 6.11828M12.2634 6.11828C12.6739 6.93757 13.5213 7.5 14.5 7.5C15.8807 7.5 17 6.38071 17 5C17 3.61929 15.8807 2.5 14.5 2.5C13.1193 2.5 12 3.61929 12 5C12 5.40197 12.0949 5.78179 12.2634 6.11828ZM12.2634 13.8817C12.0949 14.2182 12 14.598 12 15C12 16.3807 13.1193 17.5 14.5 17.5C15.8807 17.5 17 16.3807 17 15C17 13.6193 15.8807 12.5 14.5 12.5C13.5213 12.5 12.6739 13.0624 12.2634 13.8817Z" stroke="#00808C" stroke-width="2" stroke-linecap="round" stroke-linejoin="round"/>
</svg>
