<svg width="24" height="24" viewBox="0 0 24 24" fill="none" xmlns="http://www.w3.org/2000/svg">
<path d="M1 13V19C1 19.5304 1.21071 20.0391 1.58579 20.4142C1.96086 20.7893 2.46957 21 3 21H21C21.5304 21 22.0391 20.7893 22.4142 20.4142C22.7893 20.0391 23 19.5304 23 19V13" stroke="#56585A" stroke-width="2" stroke-miterlimit="10" stroke-linecap="square"/>
<path d="M23 8V5C23 4.46957 22.7893 3.96086 22.4142 3.58579C22.0391 3.21071 21.5304 3 21 3H3C2.46957 3 1.96086 3.21071 1.58579 3.58579C1.21071 3.96086 1 4.46957 1 5V8L12 14L23 8Z" stroke="#56585A" stroke-width="2" stroke-miterlimit="10" stroke-linecap="square"/>
</svg>
