<svg width="8" height="9" viewBox="0 0 8 9" fill="none" xmlns="http://www.w3.org/2000/svg">
<path d="M2.75927 1.22794C2.8151 1.22794 2.87141 1.22976 2.92819 1.2334C3.78069 1.30585 4.53363 1.79456 4.91962 2.52597C5.19387 3.01273 5.26566 3.58085 5.12046 4.1162L7.04259 5.95665C7.27358 6.16898 7.41165 6.45739 7.42903 6.76357C7.44649 7.06968 7.34183 7.37077 7.13631 7.60586C6.91306 7.84395 6.59738 7.98362 6.26336 7.99221C5.92934 8.00086 5.60632 7.87756 5.37003 7.65131L3.4333 5.79688C2.84322 5.96102 2.21016 5.90503 1.66156 5.64028C1.11285 5.37555 0.68925 4.92168 0.475929 4.36995C0.262608 3.81821 0.27537 3.20966 0.511722 2.66651C0.542829 2.59466 0.595601 2.53327 0.663246 2.49015C0.730892 2.44703 0.810356 2.42407 0.891659 2.42427C0.999037 2.42414 1.10208 2.46517 1.17759 2.53827L1.92754 3.25635C2.03016 3.3539 2.17925 3.39181 2.31889 3.35579C2.45852 3.31982 2.56761 3.21538 2.60516 3.08168C2.64279 2.94797 2.60319 2.80523 2.50132 2.70696L1.77513 2.0117C1.67747 1.91877 1.63549 1.78487 1.66368 1.65578C1.69193 1.52676 1.7864 1.42011 1.91476 1.3725C2.18508 1.27658 2.47096 1.22768 2.75927 1.22794Z" fill="white" stroke="#56585A" stroke-width="0.5"/>
</svg>
